<svg id="visual" viewBox="0 0 900 600" width="900" height="600" xmlns="http://www.w3.org/2000/svg" xmlns:xlink="http://www.w3.org/1999/xlink" version="1.1"><rect x="0" y="0" width="900" height="600" fill="#001220"></rect><defs><linearGradient id="grad1_0" x1="33.3%" y1="0%" x2="100%" y2="100%"><stop offset="20%" stop-color="#001220" stop-opacity="1"></stop><stop offset="80%" stop-color="#001220" stop-opacity="1"></stop></linearGradient></defs><defs><linearGradient id="grad2_0" x1="0%" y1="0%" x2="66.7%" y2="100%"><stop offset="20%" stop-color="#001220" stop-opacity="1"></stop><stop offset="80%" stop-color="#001220" stop-opacity="1"></stop></linearGradient></defs><g transform="translate(900, 0)"><path d="M0 243.4C-27.3 244 -54.7 244.6 -75.2 231.5C-95.7 218.4 -109.4 191.6 -124.6 171.5C-139.8 151.5 -156.5 138.1 -166.7 121.1C-176.8 104 -180.4 83.2 -192.1 62.4C-203.8 41.6 -223.6 20.8 -243.4 0L0 0Z" fill="#FBAE3C"></path></g><g transform="translate(0, 600)"><path d="M0 -243.4C24.1 -234.2 48.2 -224.9 69.5 -214C90.9 -203 109.5 -190.3 129.3 -178C149.1 -165.6 170.1 -153.7 188.5 -137C206.9 -120.2 222.7 -98.8 231.5 -75.2C240.2 -51.6 241.8 -25.8 243.4 0L0 0Z" fill="#FBAE3C"></path></g></svg>